# xmcd
#
# Track frame offsets:
#	150
#	4087
#	18791
#	33325
#	47407
#	59328
#	62584
#	72858
#	80184
#	83335
#	100614
#	118014
#	123358
#	128972
#	141151
#	145612
#	161578
#	168193
#
# Disc length: 2408 seconds
#
# Revision: 2
# Processed by: cddbd v1.5.1PL0 Copyright (c) Steve Scherf et al.
# Submitted via: audiograbber 1.83.01
#
DISCID=e0096612
DTITLE=G-Unit and Dj Whoo Kid - Grand Theft Auto G-Unit City
DYEAR=2004
DGENRE=Hip-Hop
TTITLE0=Young Buck - Gta Intro 
TTITLE1=Young Buck - The City 
TTITLE2=Young Buck - Kill 2 Birds 
TTITLE3=Tupac And G-Unit - Loyal To The Game 
TTITLE4=Young Buck - Why We Livin For 
TTITLE5=Unknown - Get Out Of Jail Skit 
TTITLE6=Young Buck - Hold U Down
TTITLE7=50 Cent - Oh No 
TTITLE8=Buck Marley - Smoke Weed Break 
TTITLE9=Dj Whoo Kid Ft. G - Unit and  Eve - Porno Star 
TTITLE10=Young Buck Ft. Chingy and Lil´ Flip - Balller Remix 
TTITLE11=Young Buck - 2 Bricks 
TTITLE12=Unknown - Gomez Bros Ft. Tony Rockwell 
TTITLE13=Eminem 50 Cent - No Matter How Many
TTITLE14=Unknown - Bitch Keeps Smokin Up My Bud 
TTITLE15=Young Buck - Bang Bang 
TTITLE16=Snoop Dogg - Dpg Unit 
TTITLE17=Gamez Bros - Outro 
EXTD=
EXTT0=
EXTT1=
EXTT2=
EXTT3=
EXTT4=
EXTT5=
EXTT6=
EXTT7=
EXTT8=
EXTT9=
EXTT10=
EXTT11=
EXTT12=
EXTT13=
EXTT14=
EXTT15=
EXTT16=
EXTT17=
PLAYORDER=
